<svg xmlns="http://www.w3.org/2000/svg" width="1440" height="900" viewBox="0 0 1440 900">
<defs>
<style>
.title{font:800 38px Arial, sans-serif;letter-spacing:-1px}
.sub{font:700 18px Arial, sans-serif}
.h3{font:800 22px Arial, sans-serif}
.body{font:500 17px Arial, sans-serif}
.small{font:600 14px Arial, sans-serif}
.pill{font:800 13px Arial, sans-serif}
.num{font:900 42px Arial, sans-serif}
.table{font:600 15px Arial, sans-serif}
</style>
<linearGradient id="bg" x1="0" x2="1" y1="0" y2="1"><stop offset="0" stop-color="#fff8ea"/><stop offset="1" stop-color="#f4efe6"/></linearGradient>
<filter id="shadow"><feDropShadow dx="0" dy="18" stdDeviation="20" flood-color="#111827" flood-opacity="0.15"/></filter>
</defs>
<rect width="1440" height="900" fill="url(#bg)"/>
<rect x="70" y="58" width="1300" height="784" rx="34" fill="#ffffff" filter="url(#shadow)"/>
<rect x="70" y="58" width="1300" height="76" rx="34" fill="#111827"/>
<rect x="70" y="105" width="1300" height="29" fill="#111827"/>
<circle cx="113" cy="96" r="10" fill="#ef4444"/><circle cx="145" cy="96" r="10" fill="#f59e0b"/><circle cx="177" cy="96" r="10" fill="#22c55e"/>
<text x="220" y="103" class="sub" fill="#e5e7eb">FieldLayer demo install · sample data</text>
<text x="1040" y="103" class="sub" fill="#93c5fd">Human-reviewed workflows</text>
<text x="110" y="190" class="title" fill="#10151f">Stale pipeline + follow-up</text>
<text x="112" y="224" class="sub" fill="#647084">See which opportunities are stuck and what message should go out next.</text>
<rect x="112" y="250" width="168" height="34" rx="17" fill="#eaf3ee"/><text x="126" y="273" class="pill" fill="#315f4b">Pipeline Sweep</text><rect x="300" y="250" width="228" height="34" rx="17" fill="#fff1d6"/><text x="314" y="273" class="pill" fill="#b45309">Stale deals surfaced</text>
<rect x="115" y="300" width="290" height="420" rx="22" fill="#f8efe0" stroke="#ded2bf"/><text x="139" y="342" class="h3" fill="#10151f">New lead</text><circle cx="359" cy="333" r="22" fill="#3b82f6"/><text x="353" y="340" class="small" fill="#fff">3</text><rect x="135" y="375" width="250" height="58" rx="14" fill="#fffaf1" stroke="#eadfce"/><text x="153" y="399" class="table" fill="#10151f">Sample homeowner</text><text x="153" y="421" class="small" fill="#647084">Draft next step ready</text><rect x="135" y="453" width="250" height="58" rx="14" fill="#fffaf1" stroke="#eadfce"/><text x="153" y="477" class="table" fill="#10151f">Sample homeowner</text><text x="153" y="499" class="small" fill="#647084">Draft next step ready</text><rect x="135" y="531" width="250" height="58" rx="14" fill="#fffaf1" stroke="#eadfce"/><text x="153" y="555" class="table" fill="#10151f">Sample homeowner</text><text x="153" y="577" class="small" fill="#647084">Draft next step ready</text><rect x="430" y="300" width="290" height="420" rx="22" fill="#f8efe0" stroke="#ded2bf"/><text x="454" y="342" class="h3" fill="#10151f">Estimate sent</text><circle cx="674" cy="333" r="22" fill="#d87a32"/><text x="668" y="340" class="small" fill="#fff">7</text><rect x="450" y="375" width="250" height="58" rx="14" fill="#fffaf1" stroke="#eadfce"/><text x="468" y="399" class="table" fill="#10151f">Sample homeowner</text><text x="468" y="421" class="small" fill="#647084">Draft next step ready</text><rect x="450" y="453" width="250" height="58" rx="14" fill="#fffaf1" stroke="#eadfce"/><text x="468" y="477" class="table" fill="#10151f">Sample homeowner</text><text x="468" y="499" class="small" fill="#647084">Draft next step ready</text><rect x="450" y="531" width="250" height="58" rx="14" fill="#fffaf1" stroke="#eadfce"/><text x="468" y="555" class="table" fill="#10151f">Sample homeowner</text><text x="468" y="577" class="small" fill="#647084">Draft next step ready</text><rect x="450" y="609" width="250" height="58" rx="14" fill="#fffaf1" stroke="#eadfce"/><text x="468" y="633" class="table" fill="#10151f">Sample homeowner</text><text x="468" y="655" class="small" fill="#647084">Draft next step ready</text><rect x="745" y="300" width="290" height="420" rx="22" fill="#f8efe0" stroke="#ded2bf"/><text x="769" y="342" class="h3" fill="#10151f">Stale follow-up</text><circle cx="989" cy="333" r="22" fill="#ef4444"/><text x="983" y="340" class="small" fill="#fff">5</text><rect x="765" y="375" width="250" height="58" rx="14" fill="#fffaf1" stroke="#eadfce"/><text x="783" y="399" class="table" fill="#10151f">Sample homeowner</text><text x="783" y="421" class="small" fill="#647084">Draft next step ready</text><rect x="765" y="453" width="250" height="58" rx="14" fill="#fffaf1" stroke="#eadfce"/><text x="783" y="477" class="table" fill="#10151f">Sample homeowner</text><text x="783" y="499" class="small" fill="#647084">Draft next step ready</text><rect x="765" y="531" width="250" height="58" rx="14" fill="#fffaf1" stroke="#eadfce"/><text x="783" y="555" class="table" fill="#10151f">Sample homeowner</text><text x="783" y="577" class="small" fill="#647084">Draft next step ready</text><rect x="765" y="609" width="250" height="58" rx="14" fill="#fffaf1" stroke="#eadfce"/><text x="783" y="633" class="table" fill="#10151f">Sample homeowner</text><text x="783" y="655" class="small" fill="#647084">Draft next step ready</text><rect x="1060" y="300" width="290" height="420" rx="22" fill="#f8efe0" stroke="#ded2bf"/><text x="1084" y="342" class="h3" fill="#10151f">Won / schedule</text><circle cx="1304" cy="333" r="22" fill="#22c55e"/><text x="1298" y="340" class="small" fill="#fff">2</text><rect x="1080" y="375" width="250" height="58" rx="14" fill="#fffaf1" stroke="#eadfce"/><text x="1098" y="399" class="table" fill="#10151f">Sample homeowner</text><text x="1098" y="421" class="small" fill="#647084">Draft next step ready</text><rect x="1080" y="453" width="250" height="58" rx="14" fill="#fffaf1" stroke="#eadfce"/><text x="1098" y="477" class="table" fill="#10151f">Sample homeowner</text><text x="1098" y="499" class="small" fill="#647084">Draft next step ready</text><text x="120" y="775" class="h3" fill="#10151f">Output: follow-up drafts queued for human approval — no silent dead leads.</text>
<text x="110" y="812" class="small" fill="#647084">Illustrative demo based on real workflow patterns. Names, jobs, prices, and dates are sample data.</text>
</svg>